<?xml version="1.0" encoding="UTF-8"?>
<svg id="Layer_1" data-name="Layer 1" xmlns="http://www.w3.org/2000/svg" viewBox="0 0 32 32">
  <defs>
    <style>
      .cls-1 {
        stroke-width: 0px;
      }
    </style>
  </defs>
  <path class="cls-1" d="M12.91,27.02l-5.06-.4v-.59l.31-.06c.8-.19,1.2-.7,1.2-1.54V8.38c0-.41-.08-.73-.23-.96s-.44-.39-.85-.49l-.4-.09v-.56l5.28-1.33.4.28-.12,4.35v3.24c1.46-.99,3.03-1.48,4.72-1.48s3.16.63,4.29,1.9c1.13,1.27,1.7,3.22,1.7,5.85,0,1.75-.29,3.22-.86,4.4s-1.35,2.07-2.32,2.67-2.04.9-3.21.9c-.78,0-1.56-.1-2.33-.31-.77-.2-1.46-.52-2.05-.96l-.46,1.23ZM16.31,25.69c.68,0,1.28-.2,1.79-.59.52-.39.92-1.06,1.2-2.01.29-.95.43-2.24.43-3.89s-.13-2.93-.4-3.86c-.27-.93-.65-1.58-1.16-1.95-.5-.37-1.11-.56-1.81-.56-.93,0-1.87.27-2.84.8v11.27c.84.52,1.77.77,2.78.77Z"/>
</svg>